<svg width="500" height="500" viewBox="0 0 500 500" fill="none" xmlns="http://www.w3.org/2000/svg">
<g clip-path="url(#clip0_1_40)">
<path d="M489.226 240C492.799 246.188 492.799 253.812 489.226 260L378.274 452.176C374.701 458.364 368.098 462.176 360.953 462.176L139.047 462.176C131.902 462.176 125.299 458.364 121.727 452.176L10.7735 260C7.20089 253.812 7.20089 246.188 10.7735 240L121.727 47.8237C125.299 41.6357 131.902 37.8238 139.047 37.8238L360.953 37.8238C368.098 37.8238 374.701 41.6358 378.274 47.8238L489.226 240Z" fill="#32A9C3"/>
<path d="M427.463 340.91C427.463 348.055 423.651 354.658 417.463 358.23L259.927 449.183C253.739 452.756 246.115 452.756 239.927 449.183L82.3923 358.23C76.2043 354.658 72.3923 348.055 72.3923 340.91L72.3923 159.004C72.3923 151.859 76.2043 145.256 82.3923 141.683L239.928 50.7304C246.116 47.1578 253.739 47.1578 259.927 50.7304L417.463 141.683C423.651 145.256 427.463 151.859 427.463 159.004L427.463 340.91Z" fill="white" fill-opacity="0.5"/>
<path d="M404.24 240.564C407.455 246.133 407.455 252.995 404.24 258.564L334.632 379.128C331.417 384.697 325.475 388.128 319.044 388.128H179.828C173.398 388.128 167.455 384.697 164.24 379.128L94.6322 258.564C91.4169 252.995 91.4169 246.133 94.6322 240.564L164.24 120C167.455 114.431 173.398 111 179.828 111L319.044 111C325.475 111 331.417 114.431 334.632 120L404.24 240.564Z" fill="white" fill-opacity="0.5"/>
<path d="M341.958 188.459C346.29 190.959 348.958 195.581 348.958 200.583L348.959 299.417C348.959 304.419 346.29 309.041 341.959 311.541L256.366 360.959C252.034 363.459 246.697 363.459 242.366 360.959L156.773 311.541C152.441 309.041 149.773 304.419 149.773 299.417L149.773 200.583C149.773 195.581 152.441 190.959 156.773 188.459L242.366 139.041C246.697 136.541 252.034 136.541 256.366 139.041L341.958 188.459Z" fill="white"/>
<path d="M310.5 210.161C313.594 211.948 315.5 215.249 315.5 218.822L315.5 282.275C315.5 285.847 313.594 289.149 310.5 290.935L255.548 322.661C252.454 324.448 248.642 324.448 245.548 322.661L190.596 290.935C187.502 289.149 185.596 285.847 185.596 282.275L185.596 218.822C185.596 215.249 187.502 211.948 190.596 210.161L245.548 178.435C248.642 176.649 252.454 176.649 255.548 178.435L310.5 210.161Z" fill="#32A9C3"/>
</g>
<defs>
<clipPath id="clip0_1_40">
<rect width="500" height="500" fill="white"/>
</clipPath>
</defs>
</svg>
